<svg xml:space="preserve" style="max-height: 500px" viewBox="0 0 865 290.86567164179104" y="0px" x="0px" xmlns:xlink="http://www.w3.org/1999/xlink" xmlns="http://www.w3.org/2000/svg" id="Layer_1" version="1.1" width="865" height="290.86567164179104">
<style type="text/css">
	.st0{fill:#FFFFFF;}
	.st1{fill:#4EB7CE;}
	.st2{fill:#F8C300;}
	.st3{opacity:0.1;}
</style>
<g>
	<g>
		<g>
			<g>
				<g>
					<path d="M331,162.6c-10.8,0-15.1-3.6-15.1-11.5c0-2,0.3-4.4,0.9-7.1l14.6-69.3c2.7-12.6,8.3-18.5,22-18.5h48.1&#10;&#9;&#9;&#9;&#9;&#9;&#9;c10.8,0,15.4,3.9,15.4,11.9c0,1.9-0.2,3.9-0.6,6.1L413.2,89h-21.4l1.6-7.7c0.2-1.1,0.3-1.9,0.3-2.7c0-2.5-1.4-3.3-5.3-3.3h-30&#10;&#9;&#9;&#9;&#9;&#9;&#9;c-4.4,0-5.8,1.1-6.8,6l-3.9,18.5h48.4c8.5,0,12.3,3.8,12.3,10.2c0,1.6-0.3,3.1-0.6,4.9l-6.1,29.1c-2.7,12.6-8.2,18.5-22,18.5&#10;&#9;&#9;&#9;&#9;&#9;&#9;H331V162.6z M385.4,121.4c0.2-0.8,0.2-1.4,0.2-2c0-2.2-1.3-3.2-4.4-3.2h-36.9l-4.1,19.7c-0.3,1.4-0.5,2.5-0.5,3.5&#10;&#9;&#9;&#9;&#9;&#9;&#9;c0,2.7,1.4,3.5,4.4,3.5h31.1c4.4,0,6.1-1.6,7.2-6.9L385.4,121.4z"/>
					<path d="M425.2,162.6c-10.7,0-15.1-3.8-15.1-11.5c0-2,0.3-4.4,0.9-7.1l14.6-69.3c2.7-12.6,8.5-18.5,22-18.5h50&#10;&#9;&#9;&#9;&#9;&#9;&#9;c10.7,0,14.9,3.8,14.9,11.6c0,2-0.3,4.2-0.8,6.9L497.1,144c-2.7,12.6-8.5,18.5-22,18.5h-49.9V162.6z M487.6,83&#10;&#9;&#9;&#9;&#9;&#9;&#9;c0.2-1.1,0.3-1.9,0.3-2.7c0-2.7-1.4-3.6-5.3-3.6h-29.4c-4.2,0-5.8,1.6-6.8,6.1L435.1,136c-0.2,0.8-0.3,1.6-0.3,2.2&#10;&#9;&#9;&#9;&#9;&#9;&#9;c0,2.2,1.3,3.1,4.6,3.1h29.4c5,0,6.8-1.6,7.5-5.3L487.6,83z"/>
					<path d="M618.7,162.6c-8,0-11.3-3-11.3-9.1c0-1.6,0.3-3.6,0.8-5.8l3.9-18.9c2.5-11.9,6.3-15.2,16.3-15.2h40.4L666,127h-28.9&#10;&#9;&#9;&#9;&#9;&#9;&#9;c-3,0-3.9,0.8-4.6,4.1l-1.7,8.3c-0.2,0.9-0.3,1.6-0.3,2.2c0,1.6,0.8,2,3,2h36.8l8.3-39c0.2-0.6,0.2-1.3,0.2-1.7&#10;&#9;&#9;&#9;&#9;&#9;&#9;c0-1.7-0.9-2.7-3.8-2.7h-54l3.6-17.3h65.1c9.1,0,12.6,3,12.6,9.4c0,1.7-0.3,3.8-0.8,6.1l-13.5,64h-69.3L618.7,162.6&#10;&#9;&#9;&#9;&#9;&#9;&#9;L618.7,162.6z"/>
					<path d="M704.2,162.6l3.8-18.2h54.5c3.3,0,4.1-0.8,4.7-3.8l1.7-7.9c0.2-0.5,0.2-0.9,0.2-1.3c0-1.4-0.8-2-3.1-2h-42.6&#10;&#9;&#9;&#9;&#9;&#9;&#9;c-7.1,0-10.2-3-10.2-7.9c0-1.1,0.2-2.2,0.5-3.5l4.4-21.2c1.9-9.4,6.6-13.8,17.6-13.8h65.7l-3.8,17.8h-54.2&#10;&#9;&#9;&#9;&#9;&#9;&#9;c-3.3,0-4.6,1.1-5.2,4.2l-1.4,6.6c-0.2,0.5-0.2,0.9-0.2,1.4c0,1.7,0.9,2.5,3.3,2.5H783c7.2,0,10.4,3.1,10.4,8&#10;&#9;&#9;&#9;&#9;&#9;&#9;c0,0.9-0.2,2-0.3,3.2l-4.7,22c-2,9.4-6.8,13.8-17.8,13.8L704.2,162.6L704.2,162.6z"/>
					<path d="M816.6,162.6c-8.8,0-12.4-3-12.4-9.4c0-1.7,0.3-3.8,0.8-6.1l18.2-86.2h22l-4.7,22.2h19.2l-3.6,17.3h-19.2l-8.6,40.7&#10;&#9;&#9;&#9;&#9;&#9;&#9;c-0.2,0.8-0.3,1.6-0.3,2c0,1.7,1.1,2.2,3.5,2.2H846l-3.6,17.3H816.6z"/>
					<g>
						<polygon points="546.7,102.1 546.8,102.1 552.1,76.9 552.1,76.9"/>
						<polygon points="538.2,141.3 538.3,141.3 538.4,141.3 543.2,119 543,119"/>
						<polygon points="590.9,162.6 595.3,141.3 543.3,141.3 538.8,162.6"/>
						<polygon points="609,76.9 613.4,56.2 536.8,56.2 532.4,76.9"/>
						<polygon points="584.9,119 588.6,102.1 528.4,102.1 524.8,119"/>
						<polygon points="543,119 543.2,119 546.8,102.1 546.7,102.1 552.1,76.9 552.1,76.9 556.5,56.2 531.7,56.2 527.3,76.9 &#10;&#9;&#9;&#9;&#9;&#9;&#9;&#9;527.4,76.9 509.3,162.6 534,162.6"/>
					</g>
				</g>
				<g>
					<path d="M329.4,229.4h-11.1l8.4-39.9h-12l2.1-9.8H352l-2.1,9.8h-12.1L329.4,229.4z"/>
					<path d="M347.3,229.4l9.8-45.9h11.5l-3.9,17.6H383l-1.7,7.9H363l-2.2,10.4h25.3l-2.1,9.9h-36.7L347.3,229.4L347.3,229.4z&#10;&#9;&#9;&#9;&#9;&#9;&#9; M355.7,189.4l2.1-9.7h36.8l-2.1,9.7H355.7z"/>
					<path d="M400.3,229.4c-5,0-7-1.8-7-5.4c0-1,0.1-2,0.4-3.2l6.8-32.4c1.2-5.9,4-8.7,10.3-8.7h27.9l-2.1,9.9h-22.4&#10;&#9;&#9;&#9;&#9;&#9;&#9;c-2.3,0-2.9,0.6-3.4,2.8l-5.2,24.2c-0.1,0.4-0.1,0.8-0.1,1.2c0,1.1,0.6,1.5,2.4,1.5h22.6l-2.1,10h-28.1L400.3,229.4&#10;&#9;&#9;&#9;&#9;&#9;&#9;L400.3,229.4z"/>
					<path d="M476.9,229.4h-11.1l4.3-20.5h-19.4l-4.3,20.5h-11.1l10.5-49.7h11.1l-4.2,19.8h19.4l4.2-19.8h11.1L476.9,229.4z"/>
					<path d="M521.1,229.4l-18.8-32.6l-6.9,32.6h-10.3l10.5-49.7h10.5l16.3,29.6l6.2-29.6H539l-10.5,49.7H521.1z"/>
					<path d="M544.9,229.4c-5,0-7-1.8-7-5.4c0-1,0.1-2.1,0.4-3.3l6.8-32.4c1.2-5.9,4-8.7,10.3-8.7h24.7c4.9,0,7,1.8,7,5.4&#10;&#9;&#9;&#9;&#9;&#9;&#9;c0,1-0.1,2.1-0.4,3.2l-6.8,32.4c-1.2,5.9-4,8.7-10.3,8.7L544.9,229.4L544.9,229.4z M574.7,192.3c0.1-0.4,0.2-0.9,0.2-1.2&#10;&#9;&#9;&#9;&#9;&#9;&#9;c0-1.2-0.7-1.7-2.6-1.7h-13.9c-1.9,0-2.6,0.7-3.1,2.9L550,217c-0.1,0.4-0.2,0.7-0.2,1c0,1.1,0.6,1.5,2.1,1.5h13.9&#10;&#9;&#9;&#9;&#9;&#9;&#9;c2.3,0,3.2-0.7,3.5-2.5L574.7,192.3z"/>
					<path d="M619,229.4h-33.3l10.5-49.7h11.1l-8.4,39.6h22.2L619,229.4z"/>
					<path d="M633.4,229.4c-5,0-7-1.8-7-5.4c0-1,0.1-2.1,0.4-3.3l6.8-32.4c1.3-5.9,4-8.7,10.3-8.7h24.7c4.9,0,7,1.8,7,5.4&#10;&#9;&#9;&#9;&#9;&#9;&#9;c0,1-0.2,2.1-0.4,3.2l-6.8,32.4c-1.2,5.9-4,8.7-10.3,8.7L633.4,229.4L633.4,229.4z M663.3,192.3c0.1-0.4,0.2-0.9,0.2-1.2&#10;&#9;&#9;&#9;&#9;&#9;&#9;c0-1.2-0.7-1.7-2.6-1.7H647c-1.9,0-2.6,0.7-3.1,2.9l-5.3,24.7c-0.1,0.4-0.2,0.7-0.2,1c0,1.1,0.6,1.5,2.1,1.5h13.9&#10;&#9;&#9;&#9;&#9;&#9;&#9;c2.3,0,3.2-0.7,3.5-2.5L663.3,192.3z"/>
					<path d="M682.4,229.4c-5,0-7-1.8-7-5.4c0-1,0.2-2.1,0.5-3.3l6.8-32.4c1.2-5.9,4-8.7,10.3-8.7h30.7l-2.1,9.9h-25.8&#10;&#9;&#9;&#9;&#9;&#9;&#9;c-1.9,0-2.5,0.5-2.9,2.7l-5.4,25.3c-0.1,0.4-0.2,0.7-0.2,1c0,1,0.5,1.3,2,1.3h15.9l2.4-11.3h-9.8l1.7-8h20.2l-6.1,28.8h-31.2&#10;&#9;&#9;&#9;&#9;&#9;&#9;L682.4,229.4L682.4,229.4z"/>
					<path d="M721.8,229.4l10.5-49.7h11.2L733,229.4H721.8z"/>
					<path d="M741.1,229.4l9.4-45H762l-3.5,16.8h18.3l-1.7,7.9h-18.3l-2.2,10.4H780l-2.1,9.9L741.1,229.4L741.1,229.4z M749.6,189.4&#10;&#9;&#9;&#9;&#9;&#9;&#9;l2-9.7h36.8l-2.1,9.7H749.6z"/>
					<path d="M785.9,229.4l2.1-9.7h26.5c1.8,0,2.5-0.6,2.9-2.4l1.5-6.9c0.1-0.3,0.1-0.6,0.1-0.8c0-1-0.5-1.3-1.9-1.3h-19.6&#10;&#9;&#9;&#9;&#9;&#9;&#9;c-4,0-5.7-1.8-5.7-4.9c0-0.7,0.1-1.3,0.2-2.1l2.7-12.8c1.2-5.9,3.9-8.7,10.3-8.7h30.9l-2,9.5h-26.3c-1.5,0-2.1,0.6-2.5,2.3&#10;&#9;&#9;&#9;&#9;&#9;&#9;l-1.4,6.5c-0.1,0.4-0.1,0.7-0.1,0.9c0,0.8,0.4,1.1,1.6,1.1h19.9c4,0,5.8,1.8,5.8,5c0,0.6-0.1,1.3-0.2,2.1l-2.9,13.6&#10;&#9;&#9;&#9;&#9;&#9;&#9;c-1.2,5.9-4,8.7-10.3,8.7h-31.6V229.4z"/>
				</g>
			</g>
		</g>
		<g>
			<g>
				<g>
					<g>
						<g>
							<path d="M155.8,263.7c3.5,0,7-0.2,10.4-0.5h-20.9C148.8,263.5,152.3,263.7,155.8,263.7z" class="st0"/>
							<path d="M291.6,152.7l-12.2,23.9l-11.8,2.3l-0.4,1.4c-5.8,17.8-15.7,33.7-28.6,46.7c-17.9,17.8-41.4,29.9-67.7,33.3l-2.2,0.3&#10;&#9;&#9;&#9;&#9;&#9;&#9;&#9;&#9;l-2.6,0.2H166c-3.4,0.3-6.8,0.5-10.2,0.5s-6.8-0.2-10.2-0.5h-0.1l-2-0.2l-2.2-0.3C114.8,257,91,244.9,73,226.9&#10;&#9;&#9;&#9;&#9;&#9;&#9;&#9;&#9;c-3.5-3.5-6.8-7.2-9.8-11.1l-0.5-0.7L30.1,208l2.7,4.8c24.1,43.1,70.1,72.2,123,72.2c74.5,0,135.4-57.8,140.5-131&#10;&#9;&#9;&#9;&#9;&#9;&#9;&#9;&#9;L291.6,152.7z"/>
							<path d="M268.5,59.7C242.8,25.5,201.9,3.3,155.8,3.3C89,3.3,33.1,49.8,18.6,112.2l4.6,1.8l10.5-18.9L49,96l0.7-1.5&#10;&#9;&#9;&#9;&#9;&#9;&#9;&#9;&#9;C55.5,82.1,63.4,70.9,73,61.4c21.2-21.2,50.4-34.3,82.8-34.3s61.6,13.1,82.8,34.3c0.8,0.8,1.5,1.5,2.2,2.3l0.8,0.8l29.8-1&#10;&#9;&#9;&#9;&#9;&#9;&#9;&#9;&#9;L268.5,59.7z"/>
						</g>
						<g>
							<g>
								<polygon points="22.3,150.3 41.3,189.9 147.7,210.6 148,199.6 148,125.6 41.5,116.6" class="st1"/>
								<polygon points="164.6,175.5 271.5,157.7 291.6,118.6 273.3,84.4 164.9,90.6 164.8,107.3 164.7,142.7" class="st2"/>
								<path d="M304.7,117l-25.6-49.4l-114.8,3.8v122.7l112.2-21.4L304.7,117z M164.8,107.3l0.1-16.7l108.4-6.3l18.3,34.3l-20.1,39&#10;&#9;&#9;&#9;&#9;&#9;&#9;&#9;&#9;&#9;l-106.9,17.9l0.1-32.9L164.8,107.3z"/>
								<polygon points="148,199.6 147.7,210.6 41.3,189.9 22.3,150.3 41.5,116.6 148,125.6 148,106.3 36.2,99.7 9.2,148.4 &#10;&#9;&#9;&#9;&#9;&#9;&#9;&#9;&#9;&#9;36,204.7 148,229.2"/>
								<polygon points="164.3,71.4 164.3,60.9 148,60.9 148,106.3 148,125.6 148,199.6 148,229.2 148,266.3 164.3,266.3 &#10;&#9;&#9;&#9;&#9;&#9;&#9;&#9;&#9;&#9;164.3,194.1"/>
							</g>
							<g class="st3">
								<path d="M164.9,90.9l-0.1,16.7h0.8l-1,35.3l-0.1,20.6c52.2-9,97.3-25.6,126.9-44.7l-18.3-34.2L164.9,90.9z" class="st0"/>
								<path d="M279.1,67.7l-114.8,3.8v92c0.1,0,0.2,0,0.4-0.1l0.1-20.6l1-35.3H165l0.1-16.7l108.4-6.3l18.3,34.2&#10;&#9;&#9;&#9;&#9;&#9;&#9;&#9;&#9;&#9;c3.7-2.4,7.1-4.8,10.2-7.2L279.1,67.7z" class="st0"/>
								<path d="M41.5,116.6l106.5,9v-19.2L36.2,99.7l-27,48.7l6.5,13.6c4.4,1.2,9,2.3,13.8,3.2l-7.2-14.9L41.5,116.6z" class="st0"/>
								<path d="M164.3,60.9H148v45.4v19.2l-106.5-9l-19.2,33.8l7.2,14.9c32,6.3,73.6,6.9,118.5,0.7&#10;&#9;&#9;&#9;&#9;&#9;&#9;&#9;&#9;&#9;c3.4-0.5,6.8-1,10.2-1.5c2.1-0.3,4.1-0.7,6.1-1v-92V60.9z" class="st0"/>
							</g>
						</g>
					</g>
				</g>
			</g>
		</g>
	</g>
</g>
</svg>